<svg xmlns="http://www.w3.org/2000/svg" viewBox="0 0 32 32" fill="none">
  <rect width="32" height="32" rx="8" fill="#050505"/>
  <path d="M16 4L25.258 9.5V20.5L16 26L6.742 20.5V9.5L16 4Z" stroke="#00F5FF" stroke-width="1"/>
  <path d="M11 16C11 13.7909 12.7909 12 15 12C16.25 12 17.25 12.6 18 13.5C18.75 12.6 19.75 12 21 12C23.2091 12 25 13.7909 25 16C25 18.2091 23.2091 20 21 20C19.75 20 18.75 19.4 18 18.5C17.25 19.4 16.25 20 15 20C12.7909 20 11 18.2091 11 16Z" stroke="#7B5CFF" stroke-width="1.4" stroke-linecap="round"/>
  <circle cx="15" cy="16" r="1.2" fill="#00F5FF"/>
  <circle cx="18" cy="16" r="1.2" fill="#FFFFFF"/>
  <circle cx="21" cy="16" r="1.2" fill="#5EFCE8"/>
</svg>
